<svg width="14" height="8" viewBox="0 0 14 8" fill="none" xmlns="http://www.w3.org/2000/svg">
<path d="M7.42041 7.37116L13.0704 1.71116C13.1641 1.6182 13.2385 1.5076 13.2893 1.38574C13.3401 1.26388 13.3662 1.13317 13.3662 1.00116C13.3662 0.869147 13.3401 0.738441 13.2893 0.616582C13.2385 0.494723 13.1641 0.384122 13.0704 0.291159C12.8831 0.104908 12.6296 0.000366211 12.3654 0.000366211C12.1012 0.000366211 11.8478 0.104908 11.6604 0.291159L6.66041 5.24116L1.71041 0.291159C1.52305 0.104908 1.2696 0.000366211 1.00541 0.000366211C0.741224 0.000366211 0.487773 0.104908 0.30041 0.291159C0.205922 0.383773 0.130751 0.494218 0.0792548 0.616094C0.0277582 0.737969 0.000959958 0.868852 0.000410708 1.00116C0.000959958 1.13347 0.0277582 1.26435 0.0792548 1.38622C0.130751 1.5081 0.205922 1.61854 0.30041 1.71116L5.95041 7.37116C6.04405 7.47267 6.1577 7.55367 6.2842 7.60908C6.4107 7.66449 6.54731 7.69309 6.68541 7.69309C6.82351 7.69309 6.96012 7.66449 7.08662 7.60908C7.21312 7.55367 7.32677 7.47267 7.42041 7.37116V7.37116Z" fill="#5250F9"/>
</svg>
