<svg width="256" height="256" viewBox="0 0 256 256" fill="none" xmlns="http://www.w3.org/2000/svg">
<path d="M112 212.267V43.7335C112 27.7335 105.173 21.3335 88.2133 21.3335H45.1199C28.1599 21.3335 21.3333 27.7335 21.3333 43.7335V212.267C21.3333 228.267 28.1599 234.667 45.1199 234.667H88.2133C105.173 234.667 112 228.267 112 212.267Z" stroke="white" stroke-width="21.76" stroke-linecap="round" stroke-linejoin="round"/>
<path d="M234.667 137.6V43.7335C234.667 27.7335 227.84 21.3335 210.88 21.3335H167.787C150.827 21.3335 144 27.7335 144 43.7335V137.6C144 153.6 150.827 160 167.787 160H210.88C227.84 160 234.667 153.6 234.667 137.6Z" stroke="white" stroke-width="21.76" stroke-linecap="round" stroke-linejoin="round"/>
</svg>
