<svg width="102" height="102" viewBox="0 0 102 102" fill="none" xmlns="http://www.w3.org/2000/svg">
<g clip-path="url(#clip0_265_16)">
<path d="M98.532 38.505L88.893 35.292L93.432 26.214C93.892 25.2638 94.046 24.1942 93.8726 23.1529C93.6987 22.1115 93.2066 21.1496 92.463 20.4L81.6 9.537C80.8462 8.78266 79.8752 8.28347 78.823 8.10966C77.7714 7.93585 76.6913 8.09615 75.735 8.568L66.657 13.107L63.444 3.46802C63.1048 2.46328 62.4607 1.58931 61.6014 0.96773C60.742 0.346156 59.7103 0.00789312 58.65 1.7001e-05H43.35C42.2808 -0.00274292 41.2378 0.330594 40.3684 0.95291C39.499 1.57523 38.8472 2.45505 38.505 3.46802L35.292 13.107L26.214 8.568C25.2638 8.10788 24.1942 7.95401 23.1529 8.12756C22.1115 8.30112 21.1496 8.79357 20.4 9.537L9.537 20.4C8.78266 21.1536 8.28347 22.1247 8.10966 23.1767C7.93585 24.2288 8.09615 25.3088 8.568 26.265L13.107 35.343L3.46802 38.556C2.46328 38.8954 1.58931 39.5394 0.96773 40.3987C0.346156 41.2579 0.00789312 42.2896 1.7001e-05 43.35V58.65C-0.00274292 59.719 0.330594 60.7624 0.95291 61.6315C1.57523 62.501 2.45505 63.1528 3.46802 63.495L13.107 66.708L8.568 75.786C8.10788 76.7361 7.95401 77.8056 8.12756 78.847C8.30112 79.8884 8.79357 80.8503 9.537 81.6L20.4 92.463C21.1536 93.2173 22.1247 93.7166 23.1767 93.8905C24.2288 94.0644 25.3088 93.9037 26.265 93.432L35.343 88.893L38.556 98.532C38.8982 99.5449 39.55 100.425 40.4194 101.047C41.2888 101.67 42.3318 102.003 43.401 102H58.701C59.77 102.003 60.8134 101.67 61.6825 101.047C62.552 100.425 63.2038 99.5449 63.546 98.532L66.759 88.893L75.837 93.432C76.781 93.8803 77.8403 94.0282 78.871 93.8548C79.9017 93.6814 80.8544 93.1959 81.6 92.463L92.463 81.6C93.2173 80.8462 93.7166 79.8752 93.8905 78.823C94.0644 77.7714 93.9037 76.6913 93.432 75.735L88.893 66.657L98.532 63.444C99.5367 63.1048 100.411 62.4607 101.033 61.6014C101.654 60.742 101.992 59.7103 102 58.65V43.35C102.003 42.2808 101.67 41.2378 101.047 40.3684C100.425 39.499 99.5449 38.8472 98.532 38.505ZM91.8 54.978L85.68 57.018C84.2729 57.4745 82.9816 58.2318 81.8963 59.237C80.8105 60.2422 79.9568 61.4718 79.3942 62.8402C78.8312 64.2085 78.5726 65.6829 78.6369 67.1609C78.7006 68.6389 79.0852 70.0852 79.764 71.4L82.671 77.214L77.061 82.824L71.4 79.764C70.0924 79.1122 68.6598 78.7496 67.1991 78.6996C65.739 78.6496 64.285 78.9143 62.9355 79.4753C61.5866 80.0363 60.3733 80.8804 59.3788 81.9509C58.3843 83.0214 57.6315 84.2933 57.171 85.68L55.131 91.8H47.022L44.982 85.68C44.5255 84.2729 43.7684 82.9816 42.763 81.8963C41.7577 80.8105 40.5282 79.9568 39.1599 79.3942C37.7917 78.8312 36.3174 78.5726 34.8393 78.6369C33.3611 78.7006 31.9146 79.0852 30.6 79.764L24.786 82.671L19.176 77.061L22.236 71.4C22.9148 70.0852 23.2995 68.6389 23.3634 67.1609C23.4273 65.6829 23.1688 64.2085 22.606 62.8402C22.0431 61.4718 21.1894 60.2422 20.1039 59.237C19.0185 58.2318 17.7273 57.4745 16.32 57.018L10.2 54.978V47.022L16.32 44.982C17.7273 44.5255 19.0185 43.7684 20.1039 42.763C21.1894 41.7577 22.0431 40.5282 22.606 39.1599C23.1688 37.7917 23.4273 36.3174 23.3634 34.8393C23.2995 33.3611 22.9148 31.9146 22.236 30.6L19.329 24.939L24.939 19.329L30.6 22.236C31.9146 22.9148 33.3611 23.2995 34.8393 23.3634C36.3174 23.4273 37.7917 23.1688 39.1599 22.606C40.5282 22.0431 41.7577 21.1894 42.763 20.1039C43.7684 19.0185 44.5255 17.7273 44.982 16.32L47.022 10.2H54.978L57.018 16.32C57.4745 17.7273 58.2318 19.0185 59.237 20.1039C60.2422 21.1894 61.4718 22.0431 62.8402 22.606C64.2085 23.1688 65.6829 23.4273 67.1609 23.3634C68.6389 23.2995 70.0852 22.9148 71.4 22.236L77.214 19.329L82.824 24.939L79.764 30.6C79.1122 31.9079 78.7496 33.3405 78.6996 34.8008C78.6496 36.2612 78.9143 37.7152 79.4753 39.0644C80.0363 40.4136 80.8804 41.6266 81.9509 42.6211C83.0214 43.6157 84.2933 44.3686 85.68 44.829L91.8 46.869V54.978ZM51 30.6C46.9653 30.6 43.0212 31.7965 39.6664 34.0381C36.3116 36.2796 33.6969 39.4656 32.1528 43.1933C30.6088 46.9209 30.2049 51.0224 30.992 54.98C31.7791 58.9371 33.7221 62.5719 36.5751 65.4248C39.428 68.2778 43.063 70.2209 47.0202 71.0078C50.9774 71.7953 55.079 71.3913 58.8066 69.8471C62.5342 68.3033 65.7206 65.6885 67.9621 62.3337C70.2035 58.9789 71.4 55.0346 71.4 51C71.4 45.5896 69.2509 40.4008 65.4248 36.5751C61.5993 32.7493 56.4106 30.6 51 30.6ZM51 61.2C48.9826 61.2 47.0106 60.6018 45.3332 59.4808C43.6558 58.3603 42.3485 56.7671 41.5764 54.9035C40.8044 53.0395 40.6024 50.9887 40.996 49.0101C41.3896 47.0315 42.361 45.214 43.7875 43.7875C45.214 42.361 47.0315 41.3896 49.0101 40.996C50.9887 40.6024 53.0395 40.8044 54.9035 41.5764C56.7671 42.3485 58.3603 43.6558 59.4808 45.3332C60.6018 47.0106 61.2 48.9826 61.2 51C61.2 53.705 60.1254 56.2994 58.2124 58.2124C56.2994 60.1254 53.705 61.2 51 61.2Z" fill="white"/>
</g>
<defs>
<clipPath id="clip0_265_16">
<rect width="102" height="102" fill="white"/>
</clipPath>
</defs>
</svg>
